<svg width="57" height="53" viewBox="0 0 57 53" fill="none" xmlns="http://www.w3.org/2000/svg">
<path d="M43.6 17.6L38 12L39.8 10.3L43.6 14.1L49.9 7.80005L51.6 9.60005L43.6 17.6Z" fill="#0E6FFF"/>
<path d="M44.7999 23.7H32.8999V11.9C32.8999 5.4 38.1999 0 44.7999 0C51.2999 0 56.6999 5.3 56.6999 11.9C56.6999 18.5 51.3999 23.7 44.7999 23.7ZM35.4999 21.2H44.8999C50.0999 21.2 54.2999 17 54.2999 11.8C54.2999 6.6 50.0999 2.4 44.8999 2.4C39.6999 2.4 35.4999 6.6 35.4999 11.8V21.2Z" fill="#0E6FFF"/>
<path d="M24.7 26.1C21.3 26.1 18.5 23.3 18.5 19.9C18.5 16.5 21.3 13.7 24.7 13.7C28.1 13.7 30.9 16.5 30.9 19.9C30.9 23.3 28.1 26.1 24.7 26.1ZM24.7 16.2C22.7 16.2 21 17.9 21 19.9C21 21.9 22.7 23.6 24.7 23.6C26.7 23.6 28.4 21.9 28.4 19.9C28.4 17.9 26.8 16.2 24.7 16.2Z" fill="#0E6FFF"/>
<path d="M34.3001 37.7001H31.8001V32.2001C31.8001 31.2001 31.2001 30.3001 30.3001 29.9001L24.7001 27.4001L19.1001 29.9001C18.2001 30.3001 17.6001 31.2001 17.6001 32.2001V37.7001H15.1001V32.2001C15.1001 30.2001 16.3001 28.4001 18.1001 27.6001L24.7001 24.6001L31.3001 27.6001C33.1001 28.4001 34.3001 30.2001 34.3001 32.2001V37.7001Z" fill="#0E6FFF"/>
<path d="M55.4 52.1001H0L11.4 40.1001H44.1L55.4 52.1001ZM5.80002 49.6001H49.6L43 42.6001H12.5L5.80002 49.6001Z" fill="#0E6FFF"/>
<path d="M38.8001 47.3H16.6001L21.4001 40H33.9001L38.8001 47.3ZM21.3001 44.8H34.2001L32.7001 42.5H22.9001L21.3001 44.8Z" fill="#0E6FFF"/>
</svg>
