<svg width="52" height="51" viewBox="0 0 52 51" fill="none" xmlns="http://www.w3.org/2000/svg">
<path d="M25.9 24.7L20.5 19.4L22.3 17.6L25.9 21.2L31.9 15.1L33.7 16.9L25.9 24.7Z" fill="#0E6FFF"/>
<path d="M42.2999 8V5.5C43.0999 5.5 43.7999 4.8 43.7999 4C43.7999 3.2 43.0999 2.5 42.2999 2.5H9.69995C8.79995 2.5 8.19995 3.2 8.19995 4C8.19995 4.8 8.89995 5.5 9.69995 5.5V8C7.49995 8 5.69995 6.2 5.69995 4C5.69995 1.8 7.49995 0 9.69995 0H42.4C44.6 0 46.4 1.8 46.4 4C46.3 6.2 44.5 8 42.2999 8Z" fill="#0E6FFF"/>
<path d="M43.2999 50.8H40.7999C40.7999 50 40.0999 49.3 39.2999 49.3H12.7C11.9 49.3 11.2 50 11.2 50.8H8.69995C8.69995 48.6 10.5 46.8 12.7 46.8H39.4C41.5 46.9 43.2999 48.6 43.2999 50.8Z" fill="#0E6FFF"/>
<path d="M26.0001 34.6C17.8001 34.6 11.1001 27.9 11.1001 19.7V5.5H40.9001V19.7C40.9001 27.9 34.2001 34.6 26.0001 34.6ZM13.6001 8V19.7C13.6001 26.5 19.2001 32.1 26.0001 32.1C32.8001 32.1 38.4001 26.5 38.4001 19.7V8H13.6001Z" fill="#0E6FFF"/>
<path d="M26 41.7C23.3 41.7 21.2 39.5 21.2 36.9C21.2 34.2 23.4 32.1 26 32.1C28.6 32.1 30.7999 34.3 30.7999 36.9C30.7999 39.6 28.7 41.7 26 41.7ZM26 34.6C24.7 34.6 23.7 35.7 23.7 36.9C23.7 38.1 24.8 39.2 26 39.2C27.2 39.2 28.2999 38.1 28.2999 36.9C28.2999 35.7 27.3 34.6 26 34.6Z" fill="#0E6FFF"/>
<path d="M28.4 43H23.5V45.5H28.4V43Z" fill="#0E6FFF"/>
<path d="M10.1 27.1L4.6 24.1C1.8 22.5 0 19.5 0 16.3V12.6C0 10.8 1.5 9.30005 3.3 9.30005H9.6V11.8H3.2C2.8 11.8 2.4 12.2 2.4 12.6V16.3C2.4 18.6 3.7 20.8 5.7 21.9L11.2 24.9L10.1 27.1Z" fill="#0E6FFF"/>
<path d="M41.9 27.1L40.7 24.9L46.2 21.9C48.2 20.8 49.5 18.6 49.5 16.3V12.6C49.5 12.2 49.1 11.8 48.7 11.8H42.4V9.30005H48.7C50.5 9.30005 52 10.8 52 12.6V16.3C52 19.5 50.2 22.5 47.4 24.1L41.9 27.1Z" fill="#0E6FFF"/>
</svg>
