<svg width="66" height="54" viewBox="0 0 66 54" fill="none" xmlns="http://www.w3.org/2000/svg">
<path d="M31.8996 18.3L26.5996 12.9L28.3996 11.2L31.8996 14.7L37.9996 8.69995L39.7996 10.4L31.8996 18.3Z" fill="#0E6FFF"/>
<path d="M32.7996 26.5C25.4996 26.5 19.5996 20.6 19.5996 13.3C19.5996 6 25.4996 0 32.7996 0C40.0996 0 45.9996 5.9 45.9996 13.2C45.9996 20.5 40.0996 26.5 32.7996 26.5ZM32.7996 2.5C26.8996 2.5 22.0996 7.3 22.0996 13.2C22.0996 19.1 26.8996 24 32.7996 24C38.6996 24 43.4996 19.2 43.4996 13.3C43.4996 7.4 38.6996 2.5 32.7996 2.5Z" fill="#0E6FFF"/>
<path d="M24.8995 53.1L26.3995 44.3L19.9995 38.1L28.8995 36.8L32.8995 28.8L36.8995 36.8L45.7995 38.1L39.3995 44.3L40.8995 53.1L32.9995 48.9001L24.8995 53.1ZM32.7995 46.1L37.3995 48.5L36.4995 43.4001L40.1995 39.8L35.0995 39.1L32.7995 34.4001L30.4995 39.1L25.3995 39.8L29.0995 43.4001L28.1995 48.5L32.7995 46.1Z" fill="#0E6FFF"/>
<path d="M10.2996 46.7L11.6996 38.5999L5.79956 32.7999L13.9996 31.6L17.6996 24.2L21.2996 31.6L26.9996 32.4L26.6996 34.9L19.6996 33.9L17.6996 29.7999L15.6996 33.9L11.1996 34.5L14.3996 37.7L13.5996 42.2L17.6996 40.0999L21.6996 42.2L20.4996 44.4L17.6996 42.9L10.2996 46.7Z" fill="#0E6FFF"/>
<path d="M62.1995 32.7L56.0995 29.4L57.1995 27.2L58.8995 28.1L58.3995 25.6L60.1995 23.8L57.7995 23.5L56.5995 21.2L55.4995 23.5L52.9995 23.8L54.3995 25.1L52.5995 26.9L47.6995 22.1L53.8995 21.2L56.5995 15.6L59.3995 21.2L65.5995 22.1L61.0995 26.5L62.1995 32.7Z" fill="#0E6FFF"/>
<path d="M3.39952 32.7L4.39952 26.5L-0.000488281 22.1L6.19952 21.2L8.89952 15.6L11.6995 21.2L17.8995 22.1L12.9995 26.9L11.1995 25.1L12.4995 23.8L9.99951 23.5L8.89952 21.2L7.79951 23.5L5.29951 23.8L7.09952 25.6L6.69952 28.1L8.39952 27.2L9.49951 29.4L3.39952 32.7Z" fill="#0E6FFF"/>
<path d="M55.1995 46.7L47.8995 42.9L44.9995 44.4L43.8995 42.2L47.8995 40.0999L51.8995 42.2L51.1995 37.7L54.3995 34.5L49.8995 33.9L47.8995 29.7999L45.8995 33.9L38.8995 34.9L38.4995 32.4L44.1995 31.6L47.8995 24.2L51.5995 31.6L59.7995 32.7999L53.7995 38.5999L55.1995 46.7Z" fill="#0E6FFF"/>
</svg>
