<svg width="24" height="24" viewBox="0 0 24 24" fill="none" xmlns="http://www.w3.org/2000/svg">
<path d="M23 6.99902V0.999023H17" stroke="white" stroke-width="2" stroke-linecap="round" stroke-linejoin="round"/>
<path d="M16 7.99902L23 0.999023" stroke="white" stroke-width="2" stroke-linecap="round" stroke-linejoin="round"/>
<path d="M21.9999 16.919V19.919C22.0011 20.1975 21.944 20.4732 21.8324 20.7284C21.7209 20.9836 21.5572 21.2126 21.352 21.4009C21.1468 21.5892 20.9045 21.7325 20.6407 21.8217C20.3769 21.911 20.0973 21.9441 19.8199 21.919C16.7428 21.5847 13.7869 20.5332 11.1899 18.849C8.77376 17.3137 6.72527 15.2652 5.18993 12.849C3.49991 10.2402 2.44818 7.27002 2.11993 4.17903C2.09494 3.9025 2.12781 3.62379 2.21643 3.36065C2.30506 3.09752 2.4475 2.85572 2.6347 2.65065C2.82189 2.44558 3.04974 2.28174 3.30372 2.16955C3.55771 2.05736 3.83227 1.99929 4.10993 1.99903H7.10993C7.59524 1.99425 8.06572 2.16611 8.43369 2.48256C8.80166 2.79902 9.04201 3.23848 9.10993 3.71903C9.23656 4.6791 9.47138 5.62176 9.80993 6.52903C9.94448 6.88695 9.9736 7.27594 9.89384 7.64991C9.81408 8.02387 9.6288 8.36714 9.35993 8.63903L8.08993 9.90903C9.51349 12.4126 11.5864 14.4855 14.0899 15.909L15.3599 14.639C15.6318 14.3702 15.9751 14.1849 16.3491 14.1051C16.723 14.0254 17.112 14.0545 17.4699 14.189C18.3772 14.5276 19.3199 14.7624 20.2799 14.889C20.7657 14.9576 21.2093 15.2022 21.5265 15.5765C21.8436 15.9508 22.0121 16.4286 21.9999 16.919Z" stroke="white" stroke-width="2" stroke-linecap="round" stroke-linejoin="round"/>
</svg>
