<svg width="16" height="16" viewBox="0 0 16 16" fill="none" xmlns="http://www.w3.org/2000/svg">
<path d="M12 14.6667H3.99996C3.26358 14.6667 2.66663 14.0697 2.66663 13.3333V2.66667C2.66663 1.93029 3.26358 1.33334 3.99996 1.33334H8.66663C8.67389 1.33365 8.68107 1.335 8.68796 1.33734C8.69447 1.33935 8.70117 1.34069 8.70796 1.34134C8.76675 1.3451 8.8248 1.35653 8.88063 1.37534L8.89929 1.38134C8.9144 1.38646 8.92911 1.3927 8.94329 1.4C9.01592 1.43228 9.0821 1.47746 9.13863 1.53334L13.1386 5.53334C13.1945 5.58986 13.2397 5.65604 13.272 5.72867C13.2786 5.74334 13.2833 5.75867 13.2886 5.774L13.2946 5.79134C13.3132 5.84693 13.3242 5.90479 13.3273 5.96334C13.3283 5.96946 13.3299 5.97548 13.332 5.98134C13.3331 5.98748 13.3336 5.99375 13.3334 6V13.3333C13.3334 14.0697 12.7363 14.6667 12 14.6667ZM3.99996 2.66667V13.3333H12V6.66667H8.66663C8.29844 6.66667 7.99996 6.36819 7.99996 6V2.66667H3.99996ZM9.33329 3.60934V5.33334H11.0573L9.33329 3.60934Z" fill="#0E6FFF"/>
</svg>
