<svg width="48" height="55" viewBox="0 0 48 55" fill="none" xmlns="http://www.w3.org/2000/svg">
<g clip-path="url(#clip0)">
<path d="M23.1995 13.6L18.6995 9.19998L20.4995 7.39998L23.1995 10.1L27.6995 5.59998L29.4995 7.29998L23.1995 13.6Z" fill="#0E6FFF"/>
<path d="M24.0996 22.4L17.4996 15.8C13.8996 12.2 13.8996 6.3 17.4996 2.7C21.0996 -0.9 26.9996 -0.9 30.5996 2.7C34.1996 6.3 34.1996 12.2 30.5996 15.8L24.0996 22.4ZM24.0996 2.5C22.2996 2.5 20.5996 3.2 19.2996 4.5C16.6996 7.1 16.6996 11.4 19.2996 14.1L24.0996 18.9L28.8996 14.1C31.4996 11.5 31.4996 7.2 28.8996 4.5C27.5996 3.2 25.8996 2.5 24.0996 2.5Z" fill="#0E6FFF"/>
<path d="M5.99951 14.6C2.69951 14.6 -0.000488281 11.9 -0.000488281 8.59998C-0.000488281 5.29998 2.69951 2.59998 5.99951 2.59998C9.29951 2.59998 11.9995 5.29998 11.9995 8.59998C11.9995 11.9 9.19951 14.6 5.99951 14.6ZM5.99951 5.19998C3.99951 5.19998 2.49951 6.69998 2.49951 8.59998C2.49951 10.5 3.99951 12.1 5.99951 12.1C7.99951 12.1 9.49951 10.6 9.49951 8.59998C9.49951 6.59998 7.89951 5.19998 5.99951 5.19998Z" fill="#0E6FFF"/>
<path d="M8.79951 54.7H-0.000488281V20.7C-0.000488281 17.6 2.59951 15 5.69951 15C7.29951 15 8.79951 15.7 9.89951 16.8L22.2995 28.1L17.9995 32.4L11.3995 28.2V33.5L8.79951 54.7ZM2.49951 52.2H6.59951L8.89951 33.2V26.5L4.99951 24L6.39951 22L17.6995 29.2L18.6995 28.2L8.09951 18.5C7.49951 17.8 6.59951 17.5 5.69951 17.5C3.89951 17.5 2.49951 18.9 2.49951 20.7V52.2Z" fill="#0E6FFF"/>
<path d="M41.9995 14.6C38.6995 14.6 35.9995 11.9 35.9995 8.59998C35.9995 5.29998 38.6995 2.59998 41.9995 2.59998C45.2995 2.59998 47.9995 5.29998 47.9995 8.59998C47.9995 11.9 45.2995 14.6 41.9995 14.6ZM41.9995 5.19998C40.0995 5.19998 38.4995 6.69998 38.4995 8.69998C38.4995 10.7 39.9995 12.2 41.9995 12.2C43.8995 12.2 45.4995 10.7 45.4995 8.69998C45.4995 6.69998 43.8995 5.19998 41.9995 5.19998Z" fill="#0E6FFF"/>
<path d="M47.8995 54.7H39.0995L36.4995 33.3V20.7C36.4995 17.5 39.0995 15 42.1995 15C45.3995 15 47.8995 17.6 47.8995 20.7V54.7ZM41.2995 52.2H45.3995V20.7C45.3995 18.9 43.9995 17.5 42.1995 17.5C40.3995 17.5 38.9995 18.9 38.9995 20.7V33.2L41.2995 52.2Z" fill="#0E6FFF"/>
<path d="M29.8996 32.4001L25.5996 28.1L37.9996 16.8L39.6996 18.6L29.2996 28.2001L30.1996 29.2001L36.9996 24.8L38.3996 26.9L29.8996 32.4001Z" fill="#0E6FFF"/>
<path d="M24.0996 36.1C23.0996 36.1 22.0996 35.7 21.2996 35L19.5996 33.3L21.3996 31.5L23.0996 33.2001C23.5996 33.7001 24.4996 33.7001 25.0996 33.2001L25.1996 33.1L29.2996 29.8L30.8996 31.8L26.7996 35C25.9996 35.7 25.0996 36.1 24.0996 36.1Z" fill="#0E6FFF"/>
<path d="M24.0995 26.9H20.4995V29.4H24.0995V26.9Z" fill="#0E6FFF"/>
</g>
<defs>
<clipPath id="clip0">
<rect width="47.9" height="54.7" fill="white" transform="translate(-0.000488281)"/>
</clipPath>
</defs>
</svg>
