<svg width="40" height="55" viewBox="0 0 40 55" fill="none" xmlns="http://www.w3.org/2000/svg">
<g clip-path="url(#clip0)">
<path d="M18.5 22.8001L13.7 18.0001L15.4 16.2001L18.5 19.3001L23.7 14.1001L25.4 15.9001L18.5 22.8001Z" fill="#0E6FFF"/>
<path d="M19.6001 36C9.7001 36 1.6001 27.9 1.6001 18C1.6001 8.1 9.7001 0 19.6001 0C29.5001 0 37.6001 8.1 37.6001 18C37.6001 28 29.5001 36 19.6001 36ZM19.6001 2.5C11.0001 2.5 4.0001 9.5 4.0001 18C4.0001 26.6 11.0001 33.5 19.5001 33.5C28.1001 33.5 35.0001 26.5 35.0001 18C35.1001 9.5 28.1001 2.5 19.6001 2.5Z" fill="#0E6FFF"/>
<path d="M19.5999 31.1999V28.6999C20.5999 28.6999 21.4999 28.5999 22.3999 28.2999L22.9999 30.6999C21.7999 30.9999 20.6999 31.1999 19.5999 31.1999ZM16.0999 30.6999C14.9999 30.3999 13.8999 29.9999 12.8999 29.3999L14.1999 27.1999C14.9999 27.6999 15.8999 27.9999 16.7999 28.2999L16.0999 30.6999ZM26.0999 29.3999L24.8999 27.1999C25.6999 26.6999 26.4999 26.1999 27.0999 25.4999L28.8999 27.2999C27.9999 28.1999 27.0999 28.8999 26.0999 29.3999ZM10.1999 27.2999C9.3999 26.4999 8.6999 25.5999 8.0999 24.5999L10.2999 23.3999C10.7999 24.1999 11.2999 24.9999 11.9999 25.5999L10.1999 27.2999ZM30.8999 24.5999L28.6999 23.2999C29.1999 22.4999 29.4999 21.5999 29.7999 20.6999L32.1999 21.3999C31.9999 22.5999 31.4999 23.5999 30.8999 24.5999ZM6.7999 21.3999C6.4999 20.2999 6.3999 19.1999 6.3999 17.9999V17.8999L7.3999 17.9999H8.8999C8.8999 18.9999 8.9999 19.8999 9.2999 20.7999L6.7999 21.3999ZM30.1999 18.0999C30.1999 17.0999 30.0999 16.1999 29.7999 15.2999L32.1999 14.6999C32.4999 15.7999 32.5999 16.8999 32.5999 18.0999H30.1999ZM9.2999 15.1999L6.8999 14.4999C7.1999 13.3999 7.5999 12.2999 8.1999 11.2999L10.3999 12.5999C9.8999 13.4999 9.4999 14.2999 9.2999 15.1999ZM28.7999 12.6999C28.2999 11.8999 27.7999 11.1999 27.0999 10.4999L28.8999 8.6999C29.6999 9.4999 30.3999 10.3999 30.9999 11.3999L28.7999 12.6999ZM11.9999 10.4999L10.1999 8.6999C11.0999 7.8999 11.9999 7.1999 12.9999 6.5999L14.1999 8.7999C13.3999 9.1999 12.6999 9.7999 11.9999 10.4999ZM24.8999 8.7999C24.0999 8.2999 23.1999 7.9999 22.2999 7.6999L22.9999 5.2999C24.0999 5.5999 25.1999 5.9999 26.1999 6.5999L24.8999 8.7999ZM16.7999 7.6999L16.1999 5.2999C17.1999 4.9999 18.2999 4.8999 19.3999 4.8999H19.5999V6.1999L19.8999 7.3999H19.5999C18.5999 7.3999 17.6999 7.4999 16.7999 7.6999Z" fill="#0E6FFF"/>
<path d="M15.1 54.2999L9.1 47.2999L0 48.7999L5.6 33.2L8 34L3.8 45.5999L10.1 44.5999L14.2 49.4L18.4 37.5999L20.8 38.4L15.1 54.2999Z" fill="#0E6FFF"/>
<path d="M24 54.3L20 43.2001L22.4 42.4001L24.9 49.4001L29.1 44.6L35.3 45.6L31 33.6L33.4 32.8L39.1 48.8L30 47.3L24 54.3Z" fill="#0E6FFF"/>
</g>
<defs>
<clipPath id="clip0">
<rect width="39.1" height="54.3" fill="white"/>
</clipPath>
</defs>
</svg>
