<svg width="54" height="54" viewBox="0 0 54 54" fill="none" xmlns="http://www.w3.org/2000/svg">
<path d="M26.9995 54C24.9995 54 23.2995 52.8 22.4995 51C22.1995 50.3 21.6995 49.8 20.8995 49.6C20.1995 49.4 19.4995 49.6 18.8995 50C17.2995 51.2 15.2995 51.4 13.4995 50.4C11.7995 49.4 10.8995 47.5 11.0995 45.6C11.1995 44.9 10.9995 44.2 10.3995 43.6C9.89954 43.1 9.19954 42.8 8.39954 42.9C6.39954 43.2 4.59952 42.3 3.59952 40.5C2.59952 38.8 2.69951 36.7 3.99951 35.1C4.39951 34.5 4.59954 33.8 4.39954 33.1C4.19954 32.4 3.69951 31.8 2.99951 31.5C1.09951 30.7 -0.000488281 29 -0.000488281 27C-0.000488281 25 1.19951 23.3 2.99951 22.5C3.69951 22.2 4.19954 21.7 4.39954 20.9C4.59954 20.2 4.39951 19.5 3.99951 18.9C2.79951 17.3 2.59952 15.3 3.59952 13.5C4.59952 11.8 6.49954 10.9 8.39954 11.1C9.09954 11.2 9.79954 11 10.3995 10.4C10.8995 9.89999 11.1995 9.19999 11.0995 8.39999C10.7995 6.39999 11.6995 4.59998 13.4995 3.59998C15.1995 2.59998 17.2995 2.7 18.8995 4C19.4995 4.4 20.1995 4.59999 20.8995 4.39999C21.5995 4.19999 22.1995 3.7 22.4995 3C23.2995 1.1 24.9995 0 26.9995 0C28.9995 0 30.6995 1.2 31.4995 3C31.7995 3.7 32.2995 4.19999 33.0995 4.39999C33.7995 4.59999 34.4995 4.4 35.0995 4C36.6995 2.8 38.6995 2.59998 40.4995 3.59998C42.1995 4.59998 43.0995 6.49999 42.8995 8.39999C42.7995 9.09999 42.9995 9.79999 43.5995 10.4C44.0995 10.9 44.7995 11.2 45.5995 11.1C47.5995 10.8 49.3995 11.7 50.3995 13.5C51.3995 15.2 51.2995 17.3 49.9995 18.9C49.4995 19.5 49.3995 20.2 49.5995 20.9C49.7995 21.6 50.2995 22.2 50.9995 22.5C52.8995 23.3 53.9995 25 53.9995 27C53.9995 29 52.7995 30.7 50.9995 31.5C50.2995 31.8 49.7995 32.3 49.5995 33.1C49.3995 33.8 49.5995 34.5 49.9995 35.1C51.1995 36.7 51.3995 38.7 50.3995 40.5C49.3995 42.2 47.4995 43.1 45.5995 42.9C44.8995 42.8 44.1995 43 43.5995 43.6C43.0995 44.1 42.7995 44.8 42.8995 45.6C43.1995 47.6 42.2995 49.4 40.4995 50.4C38.7995 51.4 36.6995 51.3 35.0995 50C34.4995 49.6 33.7995 49.4 33.0995 49.6C32.3995 49.8 31.7995 50.3 31.4995 51C30.7995 52.9 28.9995 54 26.9995 54ZM20.3995 47.1C20.7995 47.1 21.1995 47.2 21.6995 47.3C23.1995 47.7 24.2995 48.7 24.8995 50.1C25.2995 51 26.0995 51.5 27.0995 51.5C28.0995 51.5 28.8995 51 29.2995 50.1C29.8995 48.7 30.9995 47.7 32.4995 47.3C33.9995 46.9 35.4995 47.2 36.6995 48.1C37.4995 48.7 38.3995 48.8 39.2995 48.3C40.0995 47.8 40.5995 46.9 40.3995 46C40.1995 44.5 40.6995 43 41.7995 41.9C42.8995 40.8 44.3995 40.3 45.8995 40.5C46.8995 40.6 47.6995 40.2 48.1995 39.4C48.6995 38.6 48.5995 37.6 47.9995 36.8C47.0995 35.6 46.7995 34.1 47.1995 32.6C47.5995 31.1 48.5995 30 49.9995 29.4C50.8995 29 51.3995 28.2 51.3995 27.2C51.3995 26.2 50.8995 25.4 49.9995 25C48.5995 24.4 47.5995 23.3 47.1995 21.8C46.7995 20.3 47.0995 18.8 47.9995 17.6C48.5995 16.8 48.6995 15.9 48.1995 15C47.6995 14.2 46.7995 13.7 45.8995 13.9C44.3995 14.1 42.8995 13.6 41.7995 12.5C40.6995 11.4 40.1995 9.89999 40.3995 8.39999C40.4995 7.39999 40.0995 6.59998 39.2995 6.09998C38.4995 5.59998 37.4995 5.69999 36.6995 6.29999C35.4995 7.19999 33.9995 7.49998 32.4995 7.09998C30.9995 6.69998 29.8995 5.69999 29.2995 4.29999C28.8995 3.39999 28.0995 2.89999 27.0995 2.89999C26.0995 2.89999 25.2995 3.39999 24.8995 4.29999C24.2995 5.69999 23.1995 6.69998 21.6995 7.09998C20.1995 7.49998 18.6995 7.19999 17.4995 6.29999C16.6995 5.69999 15.7995 5.59998 14.8995 6.09998C14.0995 6.59998 13.5995 7.49999 13.7995 8.39999C13.9995 9.89999 13.4995 11.4 12.3995 12.5C11.2995 13.6 9.79953 14.1 8.29953 13.9C7.29953 13.8 6.49951 14.2 5.99951 15C5.49951 15.8 5.59952 16.8 6.19952 17.6C7.09952 18.8 7.39951 20.3 6.99951 21.8C6.59951 23.3 5.59952 24.4 4.19952 25C3.29952 25.4 2.79953 26.2 2.79953 27.2C2.79953 28.2 3.29952 29 4.19952 29.4C5.59952 30 6.59951 31.1 6.99951 32.6C7.39951 34.1 7.09952 35.6 6.19952 36.8C5.59952 37.6 5.49951 38.5 5.99951 39.4C6.49951 40.2 7.39953 40.7 8.29953 40.5C9.79953 40.3 11.2995 40.8 12.3995 41.9C13.4995 43 13.9995 44.5 13.7995 46C13.6995 47 14.0995 47.8 14.8995 48.3C15.6995 48.8 16.6995 48.7 17.4995 48.1C18.2995 47.4 19.2995 47.1 20.3995 47.1Z" fill="#0E6FFF"/>
<path d="M22.6996 40.6998H13.5996V21.2998H22.6996V40.6998ZM16.1996 38.1998H20.2996V23.7998H16.1996V38.1998Z" fill="#0E6FFF"/>
<path d="M36.0996 40.6999H24.8996L20.9996 39.2999L21.8996 36.9999L25.2996 38.2999H36.0996C36.6996 38.2999 37.1996 37.7999 37.2996 37.1999L37.8996 25.0999C37.8996 24.7999 37.7996 24.4999 37.5996 24.1999C37.3996 23.9999 37.0996 23.7999 36.7996 23.7999H26.5996L27.4996 21.9999C29.0996 18.7999 29.3996 17.7999 29.2996 14.6999C29.2996 14.1999 28.8996 13.6999 28.3996 13.4999C28.0996 16.3999 26.7996 18.9999 24.7996 21.0999L22.3996 23.4999L20.5996 21.6999L22.9996 19.2999C24.7996 17.5999 25.7996 15.2999 25.9996 12.7999C26.0996 11.7999 26.8996 10.8999 27.9996 10.8999C30.0996 10.8999 31.7996 12.5999 31.7996 14.5999C31.8996 17.5999 31.5996 19.0999 30.5996 21.2999H36.7996C37.7996 21.2999 38.7996 21.6999 39.4996 22.3999C40.1996 23.0999 40.5996 24.0999 40.4996 25.0999L39.8996 37.1999C39.6996 39.1999 38.0996 40.6999 36.0996 40.6999Z" fill="#0E6FFF"/>
</svg>
